<?xml version="1.0" encoding="UTF-8" standalone="no"?>
<svg
   width="180px"
   height="180px"
   viewBox="0 0 180 180"
   version="1.1"
   id="svg11"
   sodipodi:docname="glanchor.svg"
   inkscape:version="1.1.2 (0a00cf5339, 2022-02-04)"
   xmlns:inkscape="http://www.inkscape.org/namespaces/inkscape"
   xmlns:sodipodi="http://sodipodi.sourceforge.net/DTD/sodipodi-0.dtd"
   xmlns="http://www.w3.org/2000/svg"
   xmlns:svg="http://www.w3.org/2000/svg"
   xmlns:rdf="http://www.w3.org/1999/02/22-rdf-syntax-ns#"
   xmlns:cc="http://creativecommons.org/ns#"
   xmlns:dc="http://purl.org/dc/elements/1.1/">
  <sodipodi:namedview
     id="namedview13"
     pagecolor="#ffffff"
     bordercolor="#666666"
     borderopacity="1.0"
     inkscape:pageshadow="2"
     inkscape:pageopacity="0.0"
     inkscape:pagecheckerboard="0"
     showgrid="false"
     inkscape:snap-bbox="true"
     inkscape:bbox-paths="false"
     inkscape:snap-bbox-midpoints="true"
     inkscape:snap-nodes="false"
     inkscape:zoom="3.2959033"
     inkscape:cx="37.47076"
     inkscape:cy="105.73733"
     inkscape:window-width="1920"
     inkscape:window-height="1049"
     inkscape:window-x="0"
     inkscape:window-y="31"
     inkscape:window-maximized="0"
     inkscape:current-layer="glamorous">
    <sodipodi:guide
       position="0,180"
       orientation="0,180"
       id="guide651" />
    <sodipodi:guide
       position="180,180"
       orientation="180,0"
       id="guide653" />
    <sodipodi:guide
       position="180,0"
       orientation="0,-180"
       id="guide655" />
    <sodipodi:guide
       position="0,0"
       orientation="-180,0"
       id="guide657" />
  </sodipodi:namedview>
  <!-- Generator: Sketch 40.1 (33804) - http://www.bohemiancoding.com/sketch -->
  <title
     id="title2">glamorous</title>
  <desc
     id="desc4">Created with Sketch.</desc>
  <defs
     id="defs6" />
  <g
     id="Page-1"
     stroke="none"
     stroke-width="1"
     fill="none"
     fill-rule="evenodd">
    <g
       id="glamorous"
       fill="#2e312e">
      <path
         d="m 152.9325,25.653283 1.41422,1.414213 -33.94113,33.941126 -1.41421,-1.414214 z m 1.41422,127.279217 -1.41422,1.41422 -33.94112,-33.94113 1.41421,-1.41421 z m -127.279224,1.41422 -1.414213,-1.41422 33.941125,-33.94112 1.414214,1.41421 z M 25.653283,27.067496 27.067496,25.653283 61.008622,59.594408 59.594408,61.008622 Z M 0,85 c 2.209139,0 4,1.790861 4,4 0,2.209139 -1.790861,4 -4,4 z m 180,0 c -2.20914,0 -4,1.790861 -4,4 0,2.209139 1.79086,4 4,4 z M 94,0 C 94,2.209139 92.209139,4 90,4 87.790861,4 86,2.209139 86,0 Z m 0,180 c 0,-2.20914 -1.790861,-4 -4,-4 -2.209139,0 -4,1.79086 -4,4 z"
         id="Combined-Shape"
         sodipodi:nodetypes="cccccccccccccccccccccscccscccscccscc" />
      <path
         d="m 88.427871,86.879476 h -7.821497 v -3.128598 h 7.821497 V 77.29032 c -7.12804,-1.840451 -5.774614,-12.312366 1.5643,-12.312366 7.338914,0 8.692341,10.471915 1.5643,12.312366 v 6.460557 h 7.821498 v 3.128599 h -7.821498 v 24.950584 c 5.00718,-0.50343 9.466409,-3.38504 11.982539,-7.74329 l -5.412481,-3.12859 12.827271,-3.441468 -4.53647,7.821498 c -7.143886,12.91178 -25.70643,12.91178 -32.850303,0 l -4.520825,-7.821498 12.827256,3.441468 -5.42812,3.12859 c 2.516132,4.35825 6.975354,7.23986 11.982534,7.74329 z m 1.5643,-12.514396 c 4.171464,0 4.171464,-6.257197 0,-6.257197 -4.171464,0 -4.171464,6.257197 0,6.257197 z"
         style="fill:#2e312e;stroke-width:1.5643"
         id="path107" />
      <path
         d="M -1.5721243,-3.1205217 H -9.393625 v -3.1285995 h 7.8215007 v -6.4605568 c -7.1280403,-1.840451 -5.7746203,-12.312366 1.56430003,-12.312366 7.33890997,0 8.69233997,10.471915 1.56429997,12.312366 v 6.4605568 h 7.8214899 v 3.1285995 H 1.5564757 V 21.830059 c 5.00718,-0.50343 9.4664003,-3.38504 11.9825403,-7.74329 l -5.4124903,-3.12859 12.8272693,-3.44147 -4.53646,7.8215 c -7.1438894,12.91178 -25.70643,12.91178 -32.85031,0 l -4.52082,-7.8215 12.8272604,3.44147 -5.4281204,3.12859 c 2.51613,4.35825 6.9753504,7.23986 11.9825307,7.74329 z m 1.56430003,-12.5143963 c 4.17145997,0 4.17145997,-6.257197 0,-6.257197 -4.17147003,0 -4.17147003,6.257197 0,6.257197 z"
         style="fill:#2e312e;stroke-width:1.5643"
         id="path107-3" />
      <path
         d="m -1.5721239,176.87948 h -7.8215007 v -3.1286 h 7.8215007 v -6.46056 c -7.1280403,-1.84045 -5.7746203,-12.31236 1.5643,-12.31236 7.3389099,0 8.6923399,10.47191 1.5643,12.31236 v 6.46056 H 9.377966 v 3.1286 H 1.5564761 v 24.95058 c 5.0071799,-0.50343 9.4663999,-3.38504 11.9825399,-7.74329 l -5.41249,-3.12859 12.827269,-3.44147 -4.53646,7.8215 c -7.143889,12.91178 -25.7064296,12.91178 -32.85031,0 l -4.52082,-7.8215 12.8272608,3.44147 -5.4281208,3.12859 c 2.51613,4.35825 6.9753508,7.23986 11.9825311,7.74329 z m 1.5643,-12.5144 c 4.17146,0 4.17146,-6.2572 0,-6.2572 -4.17147,0 -4.17147,6.2572 0,6.2572 z"
         style="fill:#2e312e;stroke-width:1.5643"
         id="path107-3-6" />
      <path
         d="m 178.42788,176.87948 h -7.82151 v -3.1286 h 7.82151 v -6.46056 c -7.12805,-1.84045 -5.77463,-12.31236 1.5643,-12.31236 7.33891,0 8.69234,10.47191 1.5643,12.31236 v 6.46056 h 7.82149 v 3.1286 h -7.82149 v 24.95058 c 5.00718,-0.50343 9.4664,-3.38504 11.98254,-7.74329 l -5.41249,-3.12859 12.82727,-3.44147 -4.53647,7.8215 c -7.14388,12.91178 -25.70643,12.91178 -32.85031,0 l -4.52082,-7.8215 12.82726,3.44147 -5.42812,3.12859 c 2.51613,4.35825 6.97535,7.23986 11.98254,7.74329 z m 1.5643,-12.5144 c 4.17146,0 4.17146,-6.25719 0,-6.25719 -4.17147,0 -4.17147,6.25719 0,6.25719 z"
         style="fill:#2e312e;stroke-width:1.5643"
         id="path107-3-7" />
      <path
         d="m 178.42788,-3.1205225 h -7.8215 v -3.1286 h 7.8215 v -6.4605605 c -7.12804,-1.84045 -5.77462,-12.312359 1.5643,-12.312359 7.33891,0 8.69234,10.471909 1.5643,12.312359 v 6.4605605 h 7.82149 v 3.1286 h -7.82149 V 21.830058 c 5.00718,-0.503431 9.4664,-3.38504 11.98254,-7.74329 l -5.41249,-3.12859 12.82726,-3.4414705 -4.53645,7.8215005 c -7.14389,12.91178 -25.70643,12.91178 -32.85031,0 l -4.52082,-7.8215005 12.82726,3.4414705 -5.42812,3.12859 c 2.51613,4.35825 6.97535,7.239859 11.98253,7.74329 z m 1.5643,-12.5143995 c 4.17146,0 4.17146,-6.25719 0,-6.25719 -4.17147,0 -4.17147,6.25719 0,6.25719 z"
         style="fill:#2e312e;stroke-width:1.5643"
         id="path107-3-5" />
    </g>
  </g>
  <metadata
     id="metadata728">
    <rdf:RDF>
      <cc:Work
         rdf:about="">
        <dc:title>glamorous</dc:title>
      </cc:Work>
    </rdf:RDF>
  </metadata>
</svg>
